<svg width="296" height="57" viewBox="0 0 296 57" fill="none" xmlns="http://www.w3.org/2000/svg">
<path d="M75.08 39L87.88 11H90.8L103.6 39H100.48L88.72 12.72H89.92L78.16 39H75.08ZM80.12 31.52L81 29.12H97.28L98.16 31.52H80.12ZM118.472 39.2C116.659 39.2 115.019 38.7867 113.552 37.96C112.085 37.1067 110.912 35.8933 110.032 34.32C109.179 32.72 108.752 30.7733 108.752 28.48C108.752 26.1867 109.179 24.2533 110.032 22.68C110.885 21.08 112.045 19.8667 113.512 19.04C114.979 18.2133 116.632 17.8 118.472 17.8C120.472 17.8 122.259 18.2533 123.832 19.16C125.432 20.04 126.685 21.2933 127.592 22.92C128.499 24.52 128.952 26.3733 128.952 28.48C128.952 30.6133 128.499 32.48 127.592 34.08C126.685 35.68 125.432 36.9333 123.832 37.84C122.259 38.7467 120.472 39.2 118.472 39.2ZM107.632 46.76V18H110.352V24.32L110.072 28.52L110.472 32.76V46.76H107.632ZM118.272 36.68C119.765 36.68 121.099 36.3467 122.272 35.68C123.445 34.9867 124.379 34.0267 125.072 32.8C125.765 31.5467 126.112 30.1067 126.112 28.48C126.112 26.8533 125.765 25.4267 125.072 24.2C124.379 22.9733 123.445 22.0133 122.272 21.32C121.099 20.6267 119.765 20.28 118.272 20.28C116.779 20.28 115.432 20.6267 114.232 21.32C113.059 22.0133 112.125 22.9733 111.432 24.2C110.765 25.4267 110.432 26.8533 110.432 28.48C110.432 30.1067 110.765 31.5467 111.432 32.8C112.125 34.0267 113.059 34.9867 114.232 35.68C115.432 36.3467 116.779 36.68 118.272 36.68ZM145.581 39.2C143.768 39.2 142.128 38.7867 140.661 37.96C139.195 37.1067 138.021 35.8933 137.141 34.32C136.288 32.72 135.861 30.7733 135.861 28.48C135.861 26.1867 136.288 24.2533 137.141 22.68C137.995 21.08 139.155 19.8667 140.621 19.04C142.088 18.2133 143.741 17.8 145.581 17.8C147.581 17.8 149.368 18.2533 150.941 19.16C152.541 20.04 153.795 21.2933 154.701 22.92C155.608 24.52 156.061 26.3733 156.061 28.48C156.061 30.6133 155.608 32.48 154.701 34.08C153.795 35.68 152.541 36.9333 150.941 37.84C149.368 38.7467 147.581 39.2 145.581 39.2ZM134.741 46.76V18H137.461V24.32L137.181 28.52L137.581 32.76V46.76H134.741ZM145.381 36.68C146.875 36.68 148.208 36.3467 149.381 35.68C150.555 34.9867 151.488 34.0267 152.181 32.8C152.875 31.5467 153.221 30.1067 153.221 28.48C153.221 26.8533 152.875 25.4267 152.181 24.2C151.488 22.9733 150.555 22.0133 149.381 21.32C148.208 20.6267 146.875 20.28 145.381 20.28C143.888 20.28 142.541 20.6267 141.341 21.32C140.168 22.0133 139.235 22.9733 138.541 24.2C137.875 25.4267 137.541 26.8533 137.541 28.48C137.541 30.1067 137.875 31.5467 138.541 32.8C139.235 34.0267 140.168 34.9867 141.341 35.68C142.541 36.3467 143.888 36.68 145.381 36.68ZM172.919 39V11H183.399C185.773 11 187.813 11.3867 189.519 12.16C191.226 12.9067 192.533 14 193.439 15.44C194.373 16.8533 194.839 18.5733 194.839 20.6C194.839 22.5733 194.373 24.28 193.439 25.72C192.533 27.1333 191.226 28.2267 189.519 29C187.813 29.7733 185.773 30.16 183.399 30.16H174.559L175.879 28.76V39H172.919ZM175.879 29L174.559 27.56H183.319C186.119 27.56 188.239 26.96 189.679 25.76C191.146 24.5333 191.879 22.8133 191.879 20.6C191.879 18.36 191.146 16.6267 189.679 15.4C188.239 14.1733 186.119 13.56 183.319 13.56H174.559L175.879 12.16V29ZM201.03 39V18H203.87V39H201.03ZM202.47 13.36C201.884 13.36 201.39 13.16 200.99 12.76C200.59 12.36 200.39 11.88 200.39 11.32C200.39 10.76 200.59 10.2933 200.99 9.92C201.39 9.52 201.884 9.32 202.47 9.32C203.057 9.32 203.55 9.50666 203.95 9.88C204.35 10.2533 204.55 10.72 204.55 11.28C204.55 11.8667 204.35 12.36 203.95 12.76C203.577 13.16 203.084 13.36 202.47 13.36ZM211.773 39V9.32H214.613V39H211.773ZM222.515 39V9.32H225.355V39H222.515ZM241.817 39.2C239.79 39.2 237.964 38.7467 236.337 37.84C234.737 36.9067 233.47 35.64 232.537 34.04C231.604 32.4133 231.137 30.56 231.137 28.48C231.137 26.3733 231.604 24.52 232.537 22.92C233.47 21.32 234.737 20.0667 236.337 19.16C237.937 18.2533 239.764 17.8 241.817 17.8C243.897 17.8 245.737 18.2533 247.337 19.16C248.964 20.0667 250.23 21.32 251.137 22.92C252.07 24.52 252.537 26.3733 252.537 28.48C252.537 30.56 252.07 32.4133 251.137 34.04C250.23 35.64 248.964 36.9067 247.337 37.84C245.71 38.7467 243.87 39.2 241.817 39.2ZM241.817 36.68C243.337 36.68 244.684 36.3467 245.857 35.68C247.03 34.9867 247.95 34.0267 248.617 32.8C249.31 31.5467 249.657 30.1067 249.657 28.48C249.657 26.8267 249.31 25.3867 248.617 24.16C247.95 22.9333 247.03 21.9867 245.857 21.32C244.684 20.6267 243.35 20.28 241.857 20.28C240.364 20.28 239.03 20.6267 237.857 21.32C236.684 21.9867 235.75 22.9333 235.057 24.16C234.364 25.3867 234.017 26.8267 234.017 28.48C234.017 30.1067 234.364 31.5467 235.057 32.8C235.75 34.0267 236.684 34.9867 237.857 35.68C239.03 36.3467 240.35 36.68 241.817 36.68ZM262.029 39L254.109 18H256.829L264.029 37.48H262.789L270.189 18H272.629L279.949 37.48H278.709L286.029 18H288.629L280.669 39H277.989L270.949 20.68H271.789L264.709 39H262.029Z" fill="black"/>
<mask id="path-2-inside-1_107_46" fill="white">
<path fill-rule="evenodd" clip-rule="evenodd" d="M5.68287 7.00002C8.76467 7.00877 11.2561 9.46335 11.2475 12.4825L57.7481 12.6145C57.7566 9.59536 60.2618 7.15497 63.3436 7.16372C66.4254 7.17247 68.9168 9.62704 68.9083 12.6462C68.8998 15.6653 66.3946 18.1057 63.3128 18.0969L63.2563 38.1411C66.3381 38.1499 68.8294 40.6045 68.8209 43.6236C68.8124 46.6427 66.3072 49.0831 63.2254 49.0743C60.1436 49.0656 57.6523 46.611 57.6608 43.5919L11.1602 43.4599C11.1517 46.479 8.64648 48.9194 5.56469 48.9106C2.48289 48.9019 -0.0084926 46.4473 2.17586e-05 43.4282C0.00853603 40.4091 2.51367 37.9687 5.59543 37.9774L5.65195 17.9332C2.5702 17.9244 0.0788608 15.4699 0.0873751 12.4508C0.0958895 9.43166 2.60108 6.99127 5.68287 7.00002Z"/>
</mask>
<path fill-rule="evenodd" clip-rule="evenodd" d="M5.68287 7.00002C8.76467 7.00877 11.2561 9.46335 11.2475 12.4825L57.7481 12.6145C57.7566 9.59536 60.2618 7.15497 63.3436 7.16372C66.4254 7.17247 68.9168 9.62704 68.9083 12.6462C68.8998 15.6653 66.3946 18.1057 63.3128 18.0969L63.2563 38.1411C66.3381 38.1499 68.8294 40.6045 68.8209 43.6236C68.8124 46.6427 66.3072 49.0831 63.2254 49.0743C60.1436 49.0656 57.6523 46.611 57.6608 43.5919L11.1602 43.4599C11.1517 46.479 8.64648 48.9194 5.56469 48.9106C2.48289 48.9019 -0.0084926 46.4473 2.17586e-05 43.4282C0.00853603 40.4091 2.51367 37.9687 5.59543 37.9774L5.65195 17.9332C2.5702 17.9244 0.0788608 15.4699 0.0873751 12.4508C0.0958895 9.43166 2.60108 6.99127 5.68287 7.00002Z" fill="#F86F03"/>
<path d="M11.2475 12.4825L10.2475 12.4796L10.2447 13.4796L11.2447 13.4825L11.2475 12.4825ZM5.68287 7.00002L5.68003 8.00002L5.68287 7.00002ZM57.7481 12.6145L57.7453 13.6145L58.7453 13.6173L58.7481 12.6173L57.7481 12.6145ZM63.3436 7.16372L63.3408 8.16372L63.3436 7.16372ZM68.9083 12.6462L67.9083 12.6433L68.9083 12.6462ZM63.3128 18.0969L63.3156 17.0969L62.3156 17.0941L62.3128 18.0941L63.3128 18.0969ZM63.2563 38.1411L62.2563 38.1383L62.2535 39.1383L63.2534 39.1411L63.2563 38.1411ZM68.8209 43.6236L67.8209 43.6208L68.8209 43.6236ZM63.2254 49.0743L63.2226 50.0743L63.2254 49.0743ZM57.6608 43.5919L58.6608 43.5947L58.6636 42.5947L57.6636 42.5919L57.6608 43.5919ZM11.1602 43.4599L11.163 42.4599L10.163 42.4571L10.1602 43.4571L11.1602 43.4599ZM5.56469 48.9106L5.56185 49.9106H5.56185L5.56469 48.9106ZM2.17586e-05 43.4282L-0.999974 43.4254L2.17586e-05 43.4282ZM5.59543 37.9774L5.5926 38.9774L6.5926 38.9803L6.59542 37.9803L5.59543 37.9774ZM5.65195 17.9332L6.65195 17.9361L6.65477 16.9361L5.65481 16.9332L5.65195 17.9332ZM0.0873751 12.4508L-0.912621 12.448L0.0873751 12.4508ZM12.2475 12.4853C12.2577 8.89462 9.30031 6.01029 5.68571 6.00003L5.68003 8.00002C8.22902 8.00726 10.2544 10.0321 10.2475 12.4796L12.2475 12.4853ZM57.751 11.6145L11.2504 11.4825L11.2447 13.4825L57.7453 13.6145L57.751 11.6145ZM58.7481 12.6173C58.755 10.1697 60.7918 8.15648 63.3408 8.16372L63.3465 6.16372C59.7318 6.15346 56.7583 9.02098 56.7481 12.6117L58.7481 12.6173ZM63.3408 8.16372C65.8898 8.17095 67.9152 10.1958 67.9083 12.6433L69.9083 12.649C69.9184 9.05832 66.9611 6.17399 63.3465 6.16372L63.3408 8.16372ZM67.9083 12.6433C67.9014 15.0909 65.8646 17.1042 63.3156 17.0969L63.3099 19.0969C66.9246 19.1072 69.8982 16.2397 69.9083 12.649L67.9083 12.6433ZM64.2563 38.144L64.3128 18.0997L62.3128 18.0941L62.2563 38.1383L64.2563 38.144ZM69.8209 43.6264C69.831 40.0357 66.8737 37.1514 63.2591 37.1411L63.2534 39.1411C65.8024 39.1484 67.8278 41.1732 67.8209 43.6208L69.8209 43.6264ZM63.2226 50.0743C66.8372 50.0846 69.8108 47.2171 69.8209 43.6264L67.8209 43.6208C67.814 46.0683 65.7772 48.0816 63.2283 48.0743L63.2226 50.0743ZM56.6608 43.5891C56.6506 47.1797 59.608 50.0641 63.2226 50.0743L63.2283 48.0743C60.6793 48.0671 58.6539 46.0423 58.6608 43.5947L56.6608 43.5891ZM11.1573 44.4599L57.6579 44.5919L57.6636 42.5919L11.163 42.4599L11.1573 44.4599ZM5.56185 49.9106C9.17646 49.9209 12.1501 47.0534 12.1602 43.4627L10.1602 43.4571C10.1533 45.9046 8.1165 47.9179 5.56752 47.9107L5.56185 49.9106ZM-0.999974 43.4254C-1.0101 47.016 1.94725 49.9004 5.56185 49.9106L5.56753 47.9107C3.01854 47.9034 0.993115 45.8786 1.00002 43.431L-0.999974 43.4254ZM5.59825 36.9774C1.98368 36.9672 -0.989848 39.8347 -0.999974 43.4254L1.00002 43.431C1.00692 40.9835 3.04367 38.9702 5.5926 38.9774L5.59825 36.9774ZM4.65196 17.9304L4.59543 37.9746L6.59542 37.9803L6.65195 17.9361L4.65196 17.9304ZM-0.912621 12.448C-0.922747 16.0386 2.03454 18.9229 5.6491 18.9332L5.65481 16.9332C3.10585 16.926 1.08047 14.9012 1.08737 12.4536L-0.912621 12.448ZM5.68571 6.00003C2.0711 5.98977 -0.902495 8.85728 -0.912621 12.448L1.08737 12.4536C1.09427 10.006 3.13106 7.99278 5.68003 8.00002L5.68571 6.00003Z" fill="white" mask="url(#path-2-inside-1_107_46)"/>
</svg>
