<svg width="69" height="43" viewBox="0 0 69 43" fill="none" xmlns="http://www.w3.org/2000/svg">
<g id="Union">
<mask id="path-1-inside-1_107_38" fill="white">
<path fill-rule="evenodd" clip-rule="evenodd" d="M5.68287 2.34539e-05C8.76467 0.00877299 11.2561 2.46335 11.2475 5.48247L57.7481 5.61448C57.7566 2.59536 60.2618 0.15497 63.3436 0.16372C66.4254 0.172469 68.9168 2.62704 68.9083 5.64617C68.8998 8.66529 66.3946 11.1057 63.3128 11.0969L63.2563 31.1411C66.3381 31.1499 68.8294 33.6045 68.8209 36.6236C68.8124 39.6427 66.3072 42.0831 63.2254 42.0743C60.1436 42.0656 57.6523 39.611 57.6608 36.5919L11.1602 36.4599C11.1517 39.479 8.64648 41.9194 5.56469 41.9106C2.48289 41.9019 -0.0084926 39.4473 2.17586e-05 36.4282C0.00853603 33.4091 2.51367 30.9687 5.59543 30.9774L5.65195 10.9332C2.5702 10.9244 0.0788608 8.46988 0.0873751 5.45078C0.0958895 2.43166 2.60108 -0.00872608 5.68287 2.34539e-05Z"/>
</mask>
<path fill-rule="evenodd" clip-rule="evenodd" d="M5.68287 2.34539e-05C8.76467 0.00877299 11.2561 2.46335 11.2475 5.48247L57.7481 5.61448C57.7566 2.59536 60.2618 0.15497 63.3436 0.16372C66.4254 0.172469 68.9168 2.62704 68.9083 5.64617C68.8998 8.66529 66.3946 11.1057 63.3128 11.0969L63.2563 31.1411C66.3381 31.1499 68.8294 33.6045 68.8209 36.6236C68.8124 39.6427 66.3072 42.0831 63.2254 42.0743C60.1436 42.0656 57.6523 39.611 57.6608 36.5919L11.1602 36.4599C11.1517 39.479 8.64648 41.9194 5.56469 41.9106C2.48289 41.9019 -0.0084926 39.4473 2.17586e-05 36.4282C0.00853603 33.4091 2.51367 30.9687 5.59543 30.9774L5.65195 10.9332C2.5702 10.9244 0.0788608 8.46988 0.0873751 5.45078C0.0958895 2.43166 2.60108 -0.00872608 5.68287 2.34539e-05Z" fill="#F86F03"/>
<path d="M11.2475 5.48247L10.2475 5.47965L10.2447 6.47963L11.2447 6.48247L11.2475 5.48247ZM5.68287 2.34539e-05L5.68003 1.00002L5.68287 2.34539e-05ZM57.7481 5.61448L57.7453 6.61448L58.7453 6.61732L58.7481 5.6173L57.7481 5.61448ZM63.3436 0.16372L63.3408 1.16372L63.3436 0.16372ZM68.9083 5.64617L67.9083 5.64335L68.9083 5.64617ZM63.3128 11.0969L63.3156 10.0969L62.3156 10.0941L62.3128 11.0941L63.3128 11.0969ZM63.2563 31.1411L62.2563 31.1383L62.2535 32.1383L63.2534 32.1411L63.2563 31.1411ZM68.8209 36.6236L67.8209 36.6208L68.8209 36.6236ZM63.2254 42.0743L63.2226 43.0743L63.2254 42.0743ZM57.6608 36.5919L58.6608 36.5947L58.6636 35.5947L57.6636 35.5919L57.6608 36.5919ZM11.1602 36.4599L11.163 35.4599L10.163 35.4571L10.1602 36.4571L11.1602 36.4599ZM5.56469 41.9106L5.56185 42.9106H5.56185L5.56469 41.9106ZM2.17586e-05 36.4282L-0.999974 36.4254L2.17586e-05 36.4282ZM5.59543 30.9774L5.5926 31.9774L6.5926 31.9803L6.59542 30.9803L5.59543 30.9774ZM5.65195 10.9332L6.65195 10.9361L6.65477 9.93609L5.65481 9.93323L5.65195 10.9332ZM0.0873751 5.45078L-0.912621 5.44796L0.0873751 5.45078ZM12.2475 5.48529C12.2577 1.89462 9.30031 -0.98971 5.68571 -0.999972L5.68003 1.00002C8.22902 1.00726 10.2544 3.03207 10.2475 5.47965L12.2475 5.48529ZM57.751 4.61448L11.2504 4.48247L11.2447 6.48247L57.7453 6.61448L57.751 4.61448ZM58.7481 5.6173C58.755 3.16974 60.7918 1.15648 63.3408 1.16372L63.3465 -0.836276C59.7318 -0.846539 56.7583 2.02098 56.7481 5.61166L58.7481 5.6173ZM63.3408 1.16372C65.8898 1.17095 67.9152 3.19577 67.9083 5.64335L69.9083 5.64899C69.9184 2.05832 66.9611 -0.826014 63.3465 -0.836276L63.3408 1.16372ZM67.9083 5.64335C67.9014 8.09091 65.8646 10.1042 63.3156 10.0969L63.3099 12.0969C66.9246 12.1072 69.8982 9.23967 69.9083 5.64899L67.9083 5.64335ZM64.2563 31.144L64.3128 11.0997L62.3128 11.0941L62.2563 31.1383L64.2563 31.144ZM69.8209 36.6264C69.831 33.0357 66.8737 30.1514 63.2591 30.1411L63.2534 32.1411C65.8024 32.1484 67.8278 34.1732 67.8209 36.6208L69.8209 36.6264ZM63.2226 43.0743C66.8372 43.0846 69.8108 40.2171 69.8209 36.6264L67.8209 36.6208C67.814 39.0683 65.7772 41.0816 63.2283 41.0743L63.2226 43.0743ZM56.6608 36.5891C56.6506 40.1797 59.608 43.0641 63.2226 43.0743L63.2283 41.0743C60.6793 41.0671 58.6539 39.0423 58.6608 36.5947L56.6608 36.5891ZM11.1573 37.4599L57.6579 37.5919L57.6636 35.5919L11.163 35.4599L11.1573 37.4599ZM5.56185 42.9106C9.17646 42.9209 12.1501 40.0534 12.1602 36.4627L10.1602 36.4571C10.1533 38.9046 8.1165 40.9179 5.56752 40.9107L5.56185 42.9106ZM-0.999974 36.4254C-1.0101 40.016 1.94725 42.9004 5.56185 42.9106L5.56753 40.9107C3.01854 40.9034 0.993115 38.8786 1.00002 36.431L-0.999974 36.4254ZM5.59825 29.9774C1.98368 29.9672 -0.989848 32.8347 -0.999974 36.4254L1.00002 36.431C1.00692 33.9835 3.04367 31.9702 5.5926 31.9774L5.59825 29.9774ZM4.65196 10.9304L4.59543 30.9746L6.59542 30.9803L6.65195 10.9361L4.65196 10.9304ZM-0.912621 5.44796C-0.922747 9.0386 2.03454 11.9229 5.6491 11.9332L5.65481 9.93323C3.10585 9.92596 1.08047 7.90116 1.08737 5.4536L-0.912621 5.44796ZM5.68571 -0.999972C2.0711 -1.01023 -0.902495 1.85728 -0.912621 5.44796L1.08737 5.4536C1.09427 3.00604 3.13106 0.992783 5.68003 1.00002L5.68571 -0.999972Z" fill="white" mask="url(#path-1-inside-1_107_38)"/>
</g>
</svg>
